# xmcd
#
# Track frame offsets: 
#        150
#        18068
#        36647
#        54644
#        71775
#        88805
#        105657
#        126250
#        145647
#        163819
#
# Disc length: 2403 seconds
#
# Revision: 0
# Processed by: cddbd v1.5.2PL0 Copyright (c) Steve Scherf et al.
# Submitted via: ExactAudioCopy v0.99pb5
#
DISCID=8d09610a
DTITLE=Keith Urban - A Country Tribute to Keith Urban
DYEAR=1900
DGENRE=Other
TTITLE0=You'll Think of Me
TTITLE1=Making Memories of Us
TTITLE2=But For the Grace of God
TTITLE3=Stupid Boy
TTITLE4=Somebody Like You
TTITLE5=Days Go By
TTITLE6=Better Life
TTITLE7=Once In A Lifetime
TTITLE8=You're My Better Half
TTITLE9=Who Wouldn't Want To Be Me
EXTD=
EXTT0=
EXTT1=
EXTT2=
EXTT3=
EXTT4=
EXTT5=
EXTT6=
EXTT7=
EXTT8=
EXTT9=
PLAYORDER=
